<?xml version="1.0" encoding="UTF-8"?>
<svg version="1.1" xmlns="http://www.w3.org/2000/svg" width="256" height="256">
<path d="M0 0 C84.48 0 168.96 0 256 0 C256 84.48 256 168.96 256 256 C171.52 256 87.04 256 0 256 C0 171.52 0 87.04 0 0 Z " fill="#FEFEFE" transform="translate(0,0)"/>
<path d="M0 0 C0.81597656 -0.02900391 1.63195312 -0.05800781 2.47265625 -0.08789062 C3.26285156 -0.09626953 4.05304688 -0.10464844 4.8671875 -0.11328125 C5.5876123 -0.12786377 6.30803711 -0.14244629 7.05029297 -0.1574707 C10.22901154 0.56258499 11.18396384 1.67438507 13.125 4.3125 C13.73441236 7.58844385 13.67113618 10.83412033 13.64257812 14.15820312 C13.6495874 15.15697983 13.65659668 16.15575653 13.66381836 17.18479919 C13.6814313 20.48806516 13.66976344 23.79047524 13.65625 27.09375 C13.65894395 29.38773768 13.66282556 31.68172424 13.66784668 33.97570801 C13.67374622 38.78420886 13.66516378 43.59241258 13.64648438 48.40087891 C13.62369495 54.56836854 13.63681554 60.73516195 13.66077423 66.90262604 C13.67521966 71.63980365 13.6706319 76.37681585 13.66026306 81.11399841 C13.65759232 83.38822003 13.66087768 85.66245661 13.67018127 87.93666077 C13.68032584 91.11377819 13.66487411 94.28976388 13.64257812 97.46679688 C13.65067505 98.40925766 13.65877197 99.35171844 13.66711426 100.32273865 C13.5842521 106.68747733 13.5842521 106.68747733 11.22706604 109.89550781 C8.82934848 111.51179721 7.55444854 111.82661605 4.68359375 111.84375 C3.85279297 111.84890625 3.02199219 111.8540625 2.16601562 111.859375 C0.87727539 111.83617187 0.87727539 111.83617187 -0.4375 111.8125 C-1.30052734 111.82796875 -2.16355469 111.8434375 -3.05273438 111.859375 C-9.31648177 111.82043951 -9.31648177 111.82043951 -11.90234375 109.46875 C-13.34007229 106.28149637 -14.00099968 103.72866276 -14.01544189 100.2649231 C-14.02115204 99.44343781 -14.02686218 98.62195251 -14.03274536 97.77557373 C-14.03386322 96.87784241 -14.03498108 95.98011108 -14.03613281 95.05517578 C-14.04109772 94.10691925 -14.04606262 93.15866272 -14.05117798 92.18167114 C-14.06579971 89.04037759 -14.07260133 85.89913452 -14.078125 82.7578125 C-14.08387606 80.57689411 -14.0896338 78.39597573 -14.09539795 76.21505737 C-14.1059077 71.64027673 -14.11175067 67.06551367 -14.11523438 62.49072266 C-14.12072168 56.62723367 -14.144755 50.76397659 -14.17320633 44.90056038 C-14.19182388 40.39500244 -14.19703782 35.88950048 -14.19857025 31.38390732 C-14.20159886 29.22214361 -14.20963436 27.06038094 -14.22275543 24.89865494 C-14.23979861 21.87512776 -14.23793988 18.85216892 -14.23144531 15.82861328 C-14.2406601 14.93493042 -14.24987488 14.04124756 -14.2593689 13.1204834 C-14.22740219 8.37282124 -14.0006694 5.15004213 -10.875 1.3125 C-7.49341559 -0.3782922 -3.71552188 0.04360941 0 0 Z " fill="#434345" transform="translate(68.875,72.6875)"/>
<path d="M0 0 C1.17175781 -0.00773437 1.17175781 -0.00773437 2.3671875 -0.015625 C3.17414063 -0.00015625 3.98109375 0.0153125 4.8125 0.03125 C5.61945313 0.01578125 6.42640625 0.0003125 7.2578125 -0.015625 C8.03898437 -0.01046875 8.82015625 -0.0053125 9.625 0 C10.68654297 0.00676758 10.68654297 0.00676758 11.76953125 0.01367188 C14.89671852 0.80593251 15.88492357 1.92025533 17.8125 4.53125 C18.4122608 7.77799571 18.33800778 10.99175782 18.29833984 14.28515625 C18.30213654 15.27417938 18.30593323 16.26320251 18.30984497 17.28219604 C18.31725732 20.55303612 18.29585777 23.8229888 18.2734375 27.09375 C18.27105338 29.36531469 18.27014769 31.63688138 18.2706604 33.90844727 C18.2675312 38.66988463 18.25095635 43.43102113 18.22412109 48.19238281 C18.19014131 54.29918012 18.18249247 60.4056467 18.18401146 66.51252747 C18.18346788 71.20336063 18.17250267 75.89412134 18.15800858 80.58493042 C18.15163915 82.83681693 18.14770134 85.08871166 18.14622116 87.34060669 C18.14188977 90.48632828 18.12439187 93.63169771 18.10302734 96.77734375 C18.10393372 97.7104538 18.10484009 98.64356384 18.10577393 99.60494995 C18.09297897 100.89189255 18.09297897 100.89189255 18.07992554 102.20483398 C18.07657385 102.94813461 18.07322216 103.69143524 18.06976891 104.45726013 C17.770655 106.8685862 17.08717298 108.47010299 15.8125 110.53125 C12.40558509 112.23470745 8.62982483 111.75787366 4.875 111.78125 C4.05064453 111.801875 3.22628906 111.8225 2.37695312 111.84375 C1.58353516 111.84890625 0.79011719 111.8540625 -0.02734375 111.859375 C-0.75300537 111.8687207 -1.47866699 111.87806641 -2.22631836 111.88769531 C-4.74689671 111.42957949 -5.59444926 110.49367352 -7.1875 108.53125 C-8.32746253 106.25132494 -8.32014171 104.97874211 -8.33467102 102.44534302 C-8.34182632 101.59013062 -8.34898163 100.73491821 -8.35635376 99.85379028 C-8.35904266 98.91348969 -8.36173157 97.97318909 -8.36450195 97.00439453 C-8.37107315 96.01566345 -8.37764435 95.02693237 -8.38441467 94.00823975 C-8.40417272 90.72684663 -8.41581477 87.44549928 -8.42578125 84.1640625 C-8.42985678 83.04556789 -8.4339323 81.92707329 -8.43813133 80.77468491 C-8.459001 74.8567905 -8.47329985 68.93891936 -8.48266602 63.02099609 C-8.49374301 56.89836621 -8.52815549 50.77609851 -8.56783772 44.65359688 C-8.59393745 39.95420642 -8.60235186 35.2549032 -8.60594749 30.55544662 C-8.61082926 28.29794743 -8.62248811 26.04045253 -8.64098549 23.78302383 C-8.66523928 20.62735215 -8.66443711 17.47263017 -8.6574707 14.31689453 C-8.67028076 13.3806424 -8.68309082 12.44439026 -8.69628906 11.47976685 C-8.64524869 5.1520934 -8.64524869 5.1520934 -6.28581238 1.95199585 C-3.96263886 0.37899882 -2.78007307 0.0177236 0 0 Z " fill="#414143" transform="translate(181.1875,72.46875)"/>
<path d="M0 0 C28.38 0 56.76 0 86 0 C86 9.9 86 19.8 86 30 C57.62 30 29.24 30 0 30 C0 20.1 0 10.2 0 0 Z " fill="#434345" transform="translate(84,112)"/>
<path d="M0 0 C0.9384375 -0.03351563 1.876875 -0.06703125 2.84375 -0.1015625 C5.89625914 0.73338853 7.00688893 1.80530854 8.66958618 4.46691895 C10.59598401 9.47324539 10.04219444 15.09480852 9.99609375 20.37890625 C9.9962489 21.72598855 9.99774059 23.07307129 10.00050354 24.42015076 C10.00188393 27.23529943 9.98938945 30.04993639 9.96655273 32.86499023 C9.9381409 36.46524803 9.94091723 40.06465817 9.95364285 43.66497898 C9.96061158 46.44377326 9.95279775 49.22237307 9.94038582 52.0011425 C9.93370393 53.97141798 9.93800474 55.94172086 9.94248962 57.91200256 C9.92346336 59.71428566 9.92346336 59.71428566 9.90405273 61.55297852 C9.89864975 62.60743668 9.89324677 63.66189484 9.88768005 64.74830627 C9.40333427 68.34228658 8.08307598 71.04192402 5.5 73.625 C3.54830439 73.8289085 1.58636576 73.9388543 -0.375 74 C-1.44492187 74.04898438 -2.51484375 74.09796875 -3.6171875 74.1484375 C-6.5 73.625 -6.5 73.625 -8.15492249 71.49098206 C-9.71505392 68.16678055 -9.88628481 65.90857477 -9.90405273 62.24584961 C-9.91673691 60.97780991 -9.92942108 59.7097702 -9.94248962 58.40330505 C-9.94043842 57.02798295 -9.93745059 55.65266197 -9.93359375 54.27734375 C-9.93815747 52.85917409 -9.94346362 51.44100665 -9.94947815 50.02284241 C-9.95839652 47.05639639 -9.95599968 44.0902198 -9.94604492 41.1237793 C-9.93453776 37.32488859 -9.95479851 33.52692502 -9.98396206 29.72815609 C-10.00231519 26.80186577 -10.00203381 23.87579823 -9.99632454 20.9494648 C-9.99617131 19.54884093 -10.00221683 18.14820197 -10.01461601 16.74763298 C-10.02950986 14.7900592 -10.01622722 12.83233246 -10.00170898 10.87475586 C-10.00154282 9.7617662 -10.00137665 8.64877655 -10.00120544 7.50205994 C-9.0008452 1.75971133 -5.49169384 0.04526121 0 0 Z " fill="#444445" transform="translate(42.5,91.375)"/>
<path d="M0 0 C1.40765625 0.00580078 1.40765625 0.00580078 2.84375 0.01171875 C3.7821875 -0.01277344 4.720625 -0.03726563 5.6875 -0.0625 C8.72290297 0.80794644 9.85058643 1.88788875 11.5111084 4.54460144 C13.44084286 9.53815359 12.90824609 15.14374978 12.875 20.41796875 C12.87769818 21.76265747 12.88158331 23.10734428 12.88659668 24.45202637 C12.89247659 27.26296664 12.88397858 30.07339664 12.86523438 32.88427734 C12.84244447 36.47562023 12.85557584 40.06576726 12.87952423 43.65706635 C12.89402382 46.43162948 12.88935748 49.20591213 12.87901306 51.98048401 C12.87507189 53.9446389 12.88715529 55.90880498 12.89953613 57.8729248 C12.78086363 69.18093533 12.78086363 69.18093533 8.34375 73.69921875 C5.43359375 74.42578125 5.43359375 74.42578125 2.28125 74.32421875 C1.23839844 74.31648438 0.19554687 74.30875 -0.87890625 74.30078125 C-3.65625 73.69921875 -3.65625 73.69921875 -5.30458069 72.05223083 C-7.04578891 69.02110188 -7.04336512 66.93853255 -7.06030273 63.44946289 C-7.07298691 62.18457535 -7.08567108 60.91968781 -7.09873962 59.61647034 C-7.09668804 58.23910356 -7.09369989 56.86173791 -7.08984375 55.484375 C-7.09440653 54.06717173 -7.0997124 52.64997067 -7.10572815 51.23277283 C-7.1146563 48.26454675 -7.11223997 45.29658977 -7.10229492 42.32836914 C-7.09080861 38.53066806 -7.11101164 34.73389727 -7.14021206 30.9363184 C-7.15858817 28.00998567 -7.15827884 25.08387528 -7.15257454 22.15749931 C-7.15242148 20.75770195 -7.15845348 19.35788938 -7.17086601 17.95814705 C-7.18579677 15.99827323 -7.17245814 14.0382462 -7.15795898 12.07836914 C-7.15779282 10.96458389 -7.15762665 9.85079865 -7.15745544 8.70326233 C-6.40720376 4.20652593 -4.50606068 1.18615421 0 0 Z " fill="#454547" transform="translate(209.65625,91.30078125)"/>
<path d="M0 0 C6.07539134 1.21507827 7.99293549 3.32876197 11.6171875 8.15234375 C13.42203386 11.86910363 13.53410181 15.26191312 13.5 19.3125 C13.49572998 20.06998535 13.49145996 20.8274707 13.48706055 21.60791016 C13.30882296 27.44629324 12.33990705 31.81382262 8 36 C4.98088336 38.30027934 3.79198146 39 0 39 C0 26.13 0 13.26 0 0 Z " fill="#464648" transform="translate(224,109)"/>
<path d="M0 0 C0 12.87 0 25.74 0 39 C-5.48941967 37.90211607 -6.55271767 37.17302598 -10 33 C-13.95495428 26.59024652 -13.86178752 19.35898955 -13 12 C-11.41227966 8.07823569 -9.75606903 5.32410985 -6.5 2.625 C-5.9121875 2.12226562 -5.324375 1.61953125 -4.71875 1.1015625 C-3 0 -3 0 0 0 Z " fill="#434345" transform="translate(30,109)"/>
</svg>
